<?xml version="1.0" encoding="UTF-8"?><svg id="Logos" xmlns="http://www.w3.org/2000/svg" viewBox="0 0 885.13 260.9"><defs><style>.cls-1{fill:#fff;}</style></defs><path class="cls-1" d="m884.55,52.78l-48.64,47.71,47.09,59.08c1.33,1.66.14,4.12-1.99,4.12h-30.85c-.79,0-1.53-.36-2.01-.99l-32.63-42.23-9.04,8.87c-.24.24-.52.39-.82.47v31.33c0,1.4-1.14,2.54-2.54,2.54h-23.76c-1.4,0-2.54-1.14-2.54-2.54V7.24c0-1.4,1.14-2.54,2.54-2.54h23.76c1.4,0,2.54,1.14,2.54,2.54v85.87l43.14-42.85c.48-.47,1.12-.74,1.79-.74h32.62c1.71,0,2.55,2.07,1.33,3.27Zm-267.46,0l-49.4,47.9,46.94,58.89c1.33,1.66.14,4.12-1.99,4.12h-30.85c-.79,0-1.53-.36-2.01-.99l-32.58-42.17-9.09,8.81c-.24.24-.52.39-.82.47v31.33c0,1.4-1.14,2.54-2.54,2.54h-23.76c-1.4,0-2.54-1.14-2.54-2.54v-83.47c-6.96,3.05-14.46,4.95-21.92,5.63,2.6,6.71,4.04,14,4.04,21.62,0,33.15-26.97,60.11-60.11,60.11-11.71,0-22.65-3.38-31.9-9.2-.59,1.33-.96,2.73-1.07,4.13-.34,4.41,1.92,9.29,5.5,11.88,4.67,3.37,12.25,4.38,23.87,3.17,3.04-.32,6.08-.71,9.3-1.13,8.38-1.09,17.05-2.23,26.2-1.95,11.74.36,28.28,3.39,40.45,15.83,10.55,10.78,15.1,26.63,11.87,41.36-3.04,13.85-12.73,25.72-25.59,31.56-1.34.61-2.91-.04-3.43-1.41l-8.23-21.58c-.44-1.16,0-2.5,1.09-3.09,4.3-2.36,7.7-6.75,8.74-11.49,1.19-5.43-.62-11.74-4.51-15.71-5.93-6.06-15.85-7.24-21.23-7.4-6.89-.21-14.09.73-21.71,1.73-3.26.42-6.62.86-10.03,1.22-11.88,1.24-29.29,1.72-43.21-8.33-11.46-8.28-18.16-22.73-17.06-36.83.64-8.22,3.93-16.15,9.05-22.61-5.2-8.89-8.2-19.22-8.2-30.24,0-33.15,26.97-60.11,60.11-60.11,4.75,0,9.36.57,13.8,1.62,5.86,1.1,11.3,2.76,17.25,4.58,3.47,1.06,7.05,2.16,11.16,3.29,8.39,2.31,19.4.59,28.06-4.37,2.12-1.21,5.14-3.26,7.73-6.15V7.24c0-1.4,1.14-2.54,2.54-2.54h23.76c1.4,0,2.54,1.14,2.54,2.54v86.05l44.24-43.22c.36-.35.84-.55,1.34-.55h32.88c1.71,0,2.55,2.07,1.33,3.27Zm-154.59,52.15c0-14.01-9.05-25.91-21.6-30.25,0,0,0,0,0,0-.73-.25-1.48-.47-2.23-.67-.19-.05-.38-.1-.57-.15-.64-.16-1.29-.3-1.95-.42-.41-.07-.83-.13-1.25-.19-.49-.07-.98-.15-1.48-.19-.97-.09-1.95-.15-2.95-.15s-1.97.06-2.94.15c-.16.02-.32.02-.48.04-.82.09-1.63.22-2.44.37-.3.06-.61.11-.91.17-14.42,3.12-25.26,15.96-25.26,31.3,0,17.66,14.37,32.03,32.03,32.03s32.03-14.37,32.03-32.03ZM77.06,72.44c-2.86-.63-5.7-1.19-8.45-1.73-7.11-1.39-13.82-2.71-19.72-5.07-7.17-2.87-12.43-7.43-14.08-12.19-2.05-5.94,1.27-14.19,7.56-18.79,7.41-5.41,15.13-7.22,25.04-5.85,13.78,1.9,24.31,8.07,31.33,18.36.75,1.1,2.25,1.41,3.39.71l19.91-12.12c1.24-.75,1.58-2.38.79-3.59C111.3,14.63,93.53,3.77,71.29.71,54.01-1.68,39.08,1.94,25.64,11.76,9.33,23.68,1.92,45.12,8.01,62.73c4.43,12.8,15.21,23.19,30.34,29.25,8.37,3.35,16.73,4.99,24.81,6.57,2.7.53,5.26,1.03,7.78,1.59,7.09,1.56,15.95,4.03,21.63,9.29,2.94,2.72,3.86,8.6,1.97,12.57-6.4,13.45-24.78,17.27-39.62,14.08-17.9-3.84-25.33-14.76-26.52-24.48-.16-1.31-1.25-2.3-2.57-2.27l-23.35.5c-1.46.03-2.59,1.29-2.48,2.75,1.78,25.23,20.72,45.18,48.98,51.24,5.51,1.18,10.98,1.75,16.31,1.75,24.18,0,45.52-11.73,54.87-31.39,7.25-15.24,3.75-34.4-8.31-45.58-10.68-9.89-24.21-13.84-34.79-16.18Zm171.92,32.49c0,33.15-26.97,60.11-60.11,60.11s-60.11-26.96-60.11-60.11,26.97-60.11,60.11-60.11,60.11,26.96,60.11,60.11Zm-28.08,0c0-17.66-14.37-32.03-32.03-32.03s-32.03,14.37-32.03,32.03,14.37,32.03,32.03,32.03,32.03-14.37,32.03-32.03Zm549.85,32.16l-19.09-12.9c-1.1-.74-2.59-.51-3.41.54-6.06,7.7-15.31,12.23-25.18,12.23-23.72,0-41.51-25.93-26.5-50.93.23-.38,1.47-2.01,2.57-3.2,1.17-1.27,2.23-2.1,2.84-2.56,14.95-11.27,33.13-8.87,44.03,2.32.93.95,2.43,1.02,3.44.17l17.62-14.84c1.11-.94,1.21-2.62.22-3.69-11.38-12.36-27.35-19.4-44.22-19.4-33.15,0-60.11,26.96-60.11,60.11s26.97,60.11,60.11,60.11c19.11,0,36.96-9.04,48.29-24.31.87-1.17.6-2.83-.61-3.64ZM305.91,44.3c-28.04,1.52-50.92,26.63-50.92,54.71v61.73c0,1.4,1.14,2.54,2.54,2.54h23c1.4,0,2.54-1.14,2.54-2.54v-62.62c0-15.03,12.91-27.11,28.23-25.71,13.38,1.22,23.41,12.87,23.41,26.31v62.03c0,1.4,1.14,2.54,2.54,2.54h23c1.4,0,2.54-1.14,2.54-2.54v-62.62c0-30.71-25.81-55.5-56.88-53.82Zm346.06,5.44h-23c-1.4,0-2.54,1.14-2.54,2.54v108.46c0,1.4,1.14,2.54,2.54,2.54h23c1.4,0,2.54-1.14,2.54-2.54V52.29c0-1.4-1.14-2.54-2.54-2.54Zm-11.65-48.8c-9.36,0-16.95,7.59-16.95,16.95s7.59,16.95,16.95,16.95,16.95-7.59,16.95-16.95-7.59-16.95-16.95-16.95Z" fill="#1e2126" fill-rule="evenodd"/></svg>
