<?xml version="1.0" encoding="UTF-8"?>
<svg width="127px" height="20px" viewBox="0 0 127 20" version="1.1" xmlns="http://www.w3.org/2000/svg" xmlns:xlink="http://www.w3.org/1999/xlink">
    <g id="bandcamp-logo-color-bcaqua">
        <path d="M26.6183559,0 L29.0405658,0 L29.0405658,5.80260416 L29.0833959,5.80260416 C29.742088,4.70382874 31.12316,4.02220904 32.35568,4.02220904 C35.8187093,4.02220904 37.4979999,6.74868784 37.4979999,10.068101 C37.4979999,13.1224132 36.0107283,16.0020614 32.7591428,16.0020614 C31.271712,16.0020614 29.6780816,15.629328 28.9553832,14.1340954 L28.9133492,14.1340954 L28.9133492,15.6955634 L26.6181967,15.6955634 L26.6181967,0.0003184394 L26.6183559,0 M32.0366036,6.00051429 C29.9974764,6.00051429 28.9555425,7.60544926 28.9555425,10.0233602 C28.9555425,12.3088003 30.0821813,14.024393 32.0366036,14.024393 C34.246892,14.024393 35.0754715,12.0016655 35.0754715,10.0233602 C35.0738794,7.9574841 34.0325823,6.00051429 32.0359667,6.00051429" id="b" fill="#333333"></path>
        <path d="M56.2618869,4.05214235 C54.8169677,4.05214235 53.5629531,4.82133291 52.8404139,6.07502913 L52.7980614,6.0304476 L52.7980614,4.36023254 L50.5030681,4.36023254 L50.5030681,14.038882 C49.1216777,14.0544856 48.9930281,14.0544856 48.8876247,14.0544856 C48.441491,14.0544856 48.3136375,13.81279 48.3136375,13.1972465 L48.3136375,7.34942392 C48.3136375,4.95412217 46.0614743,4.05214235 43.9147146,4.05214235 C41.4923455,4.05214235 39.0916302,4.90906298 38.9222204,7.83345192 L41.3439527,7.83345192 C41.4506299,6.6023649 42.4062668,6.0304476 43.7663218,6.0304476 C44.7436125,6.0304476 46.0399796,6.27293926 46.0399796,7.56962482 C46.0399796,9.04224818 44.4888609,8.84433804 42.7463601,9.17455978 C40.7064368,9.41561847 38.5179615,9.87847025 38.5179615,12.7127408 C38.5179615,14.9336969 40.3026556,16.0319947 42.2785725,16.0319947 C43.5750989,16.0319947 45.1258991,15.6143613 46.0826505,14.6488528 C46.2730773,15.6812336 46.9752364,16.0319947 47.9523679,16.0319947 C48.35599,16.0319947 49.1208816,15.8788253 52.9103114,15.7468322 L52.9103114,15.7245414 L52.925278,15.7245414 L52.925278,9.02091273 C52.925278,7.34974236 53.9667343,6.03076604 55.5813817,6.03076604 C57.0049654,6.03076604 57.6856298,6.80059348 57.7275045,8.58067016 L57.7275045,15.7248598 L60.150829,15.7248598 L60.150829,7.92165966 C60.1554463,5.37191476 58.6462024,4.05246079 56.2658673,4.05246079 L56.2618869,4.05214235 Z M45.8958858,11.9002425 C45.8958858,13.4827275 44.2384083,14.054804 43.175935,14.054804 C42.3257016,14.054804 40.9441519,13.7239454 40.9441519,12.6036753 C40.9441519,11.2842213 41.8795679,10.888401 42.9211834,10.712304 C43.983179,10.5147123 45.1520112,10.5374807 45.8958858,10.0317989 L45.8958858,11.9002425 L45.8958858,11.9002425 Z" id="an" fill="#333333"></path>
        <path d="M72.6248994,15.6944488 L70.3297469,15.6944488 L70.3297469,14.1557493 L70.2877129,14.1557493 C69.6503562,15.452594 68.2684881,16.0015837 66.8875753,16.0015837 C63.424546,16.0015837 61.7454147,13.3414995 61.7454147,9.93515247 C61.7454147,5.82457648 64.1042551,4.02204982 66.5057664,4.02204982 C67.8862015,4.02204982 69.4159848,4.54986325 70.1597002,5.8021265 L70.203008,5.8021265 L70.203008,0 L72.6250586,0 L72.6250586,15.6947673 L72.6248994,15.6944488 M67.2066517,14.0240746 C69.3737916,14.0240746 70.2878721,11.9795339 70.2878721,10.000751 C70.2878721,7.49574686 69.1193584,6.00003663 67.2490041,6.00003663 C64.9751871,6.00003663 64.1676245,8.08852194 64.1676245,10.1324257 C64.1676245,12.0889178 65.1022444,14.0239153 67.2071294,14.0239153" id="d" fill="#333333"></path>
        <path d="M82.2513248,8.16335522 C82.0599427,6.77846193 81.0826519,6.03060682 79.7440916,6.03060682 C78.4897585,6.03060682 76.7265591,6.71238574 76.7265591,10.1636328 C76.7265591,12.054208 77.5336439,14.054804 79.6377328,14.054804 C81.0398218,14.054804 82.0169533,13.0864295 82.2513248,11.4598407 L84.6735347,11.4598407 C84.2270825,14.4054059 82.4638831,16.0319947 79.6377328,16.0319947 C76.1952428,16.0319947 74.30419,13.5046998 74.30419,10.1636328 C74.30419,6.73467651 76.1103787,4.05277923 79.7225969,4.05277923 C82.272501,4.05277923 84.440437,5.37159632 84.6735347,8.16351444 L82.2551461,8.16351444 L82.2513248,8.16335522" id="c" fill="#333333"></path>
        <path d="M106.435211,5.94255831 C105.946406,4.64635041 104.693347,4.05214235 103.354309,4.05214235 C101.610853,4.05214235 100.696932,4.82133291 99.9756661,5.94255831 L99.9119782,4.36023254 L97.6160296,4.36023254 L97.6160296,14.038882 C96.2340022,14.0544856 96.1050343,14.0544856 95.9999492,14.0544856 C95.5525418,14.0544856 95.4267582,13.81279 95.4267582,13.1972465 L95.4267582,7.34942392 C95.4267582,4.95412217 93.1737989,4.05214235 91.0270391,4.05214235 C88.6053069,4.05214235 86.2037956,4.90906298 86.0335897,7.83345192 L88.4565957,7.83345192 C88.5623176,6.6023649 89.519069,6.0304476 90.879124,6.0304476 C91.8570516,6.0304476 93.1531003,6.27293926 93.1531003,7.56962482 C93.1531003,9.04224818 91.6007079,8.84433804 89.8586847,9.17455978 C87.8187614,9.41561847 85.6301269,9.87847025 85.6301269,12.7127408 C85.6301269,14.9336969 87.4146617,16.0319947 89.3910563,16.0319947 C90.6875827,16.0319947 92.239179,15.6143613 93.1944974,14.6488528 C93.3855611,15.6812336 94.086128,16.0319947 95.0653294,16.0319947 C95.4681553,16.0319947 96.2340022,15.8788253 99.9884037,15.7468322 L100.037762,8.97680887 C100.037762,7.08639291 101.185736,6.03076604 102.438795,6.03076604 C103.905209,6.03076604 104.373315,6.86555513 104.373315,8.42750077 L104.373315,15.7248598 L106.795048,15.7248598 L106.795048,9.06453894 C106.795048,7.15183222 107.495614,6.03092526 109.132393,6.03092526 C111.023924,6.03092526 111.130601,7.28382538 111.130601,9.08698893 L111.130601,15.7247006 L113.552333,15.7247006 L113.552333,7.87771501 C113.553925,5.10745078 112.194189,4.05246079 109.879134,4.05246079 C108.283752,4.05214235 107.242455,4.77802514 106.435211,5.94255831 Z M90.2850752,14.054804 C89.4356378,14.054804 88.0542474,13.7239454 88.0542474,12.6036753 C88.0542474,11.2842213 88.9896634,10.888401 90.0301644,10.712304 C91.0932745,10.5147123 92.2614698,10.5374807 93.0050259,10.0317989 L93.0050259,11.9002425 C93.0050259,13.4827275 91.3475485,14.054804 90.2850752,14.054804 Z" id="am" fill="#333333"></path>
        <path d="M118.037553,4.36023254 L118.037553,5.8989321 L118.080543,5.8989321 C118.760411,4.60240577 120.077158,4.05214235 121.479884,4.05214235 C124.944506,4.05214235 126.622682,6.77862115 126.622682,10.0980343 C126.622682,13.1523465 125.135569,16.0319947 121.884302,16.0319947 C120.481576,16.0319947 118.972173,15.5048182 118.207918,14.2527141 L118.164929,14.2527141 L118.164929,19.922529 L115.743197,19.922529 L115.743197,4.36023254 L118.037553,4.36023254 Z M118.080543,10.0532935 C118.080543,12.3387336 119.206226,14.0543263 121.161445,14.0543263 C123.371415,14.0543263 124.200949,12.0315988 124.200949,10.0532935 C124.200949,7.98741741 123.15806,6.0304476 121.161445,6.0304476 C119.12184,6.0304476 118.080543,7.63538257 118.080543,10.0532935 Z" id="p" fill="#333333"></path>
        <polygon id="rhomboid" fill="#1DA0C3" points="0 15.6298057 8.46714648 0 26.5989311 0 18.1316254 15.6298057"></polygon>
    </g>
</svg>